<?xml version="1.0" encoding="UTF-8" standalone="no"?>
<!DOCTYPE svg PUBLIC "-//W3C//DTD SVG 1.1//EN" "http://www.w3.org/Graphics/SVG/1.1/DTD/svg11.dtd">
<svg xmlns="http://www.w3.org/2000/svg" version="1.1" viewBox="0.00 0.00 500.00 500.00">
<g stroke-width="2.00" fill="none" stroke-linecap="butt">
<path stroke="#95c2ff" vector-effect="non-scaling-stroke" d="
  M 64.48 310.04
  L 64.09 318.33"
/>
<path stroke="#81a7ff" vector-effect="non-scaling-stroke" d="
  M 64.09 318.33
  Q 63.93 330.80 63.93 343.38
  Q 63.93 350.20 62.92 353.03
  Q 60.05 361.05 53.16 365.75
  Q 44.18 371.87 40.65 382.45
  Q 38.85 387.86 38.84 400.37
  Q 38.83 429.06 39.02 454.42
  C 39.05 457.88 39.81 461.17 43.11 462.91
  Q 44.85 463.83 48.93 463.84
  Q 76.11 463.86 103.29 463.84
  C 109.38 463.83 113.03 464.01 117.02 460.33
  C 125.11 452.87 121.87 441.26 112.23 436.90
  Q 108.55 435.24 105.17 433.44
  Q 104.77 433.23 104.77 432.78
  L 104.77 405.05
  A 0.79 0.78 77.6 0 1 105.22 404.34
  Q 113.88 400.35 124.63 395.65
  Q 153.52 383.01 169.58 353.29
  Q 174.21 344.72 176.22 336.11
  A 1.10 1.10 0.0 0 1 177.59 335.30
  Q 186.43 337.74 194.08 340.68
  Q 195.21 341.11 194.05 341.42
  C 180.31 345.07 182.45 363.70 197.01 363.31
  C 201.91 363.18 207.92 362.21 211.45 366.54
  Q 215.34 371.30 213.14 376.60
  C 211.69 380.09 207.84 382.92 205.21 385.72
  C 189.73 402.20 187.28 427.15 201.45 445.68"
/>
<path stroke="#8cb6ff" vector-effect="non-scaling-stroke" d="
  M 201.45 445.68
  C 208.74 455.13 219.01 461.16 230.48 463.27
  C 237.26 464.52 246.08 464.07 253.69 464.03"
/>
<path stroke="#95c2ff" vector-effect="non-scaling-stroke" d="
  M 253.69 464.03
  Q 289.17 464.08 324.50 463.93
  C 330.82 463.90 334.78 460.74 337.30 455.24
  Q 337.67 454.43 337.80 455.31
  Q 338.21 457.91 337.78 460.98
  A 1.93 1.91 30.2 0 0 338.16 462.39
  Q 339.42 464.04 341.73 464.04
  Q 351.93 464.07 362.47 463.94
  C 368.02 463.87 372.17 458.81 371.33 453.50
  Q 370.52 448.35 365.95 446.09
  Q 363.24 444.75 360.38 443.95
  A 1.26 1.25 -82.1 0 1 359.47 442.74
  L 359.43 397.54
  A 2.31 2.27 64.6 0 1 359.92 396.12
  Q 370.79 382.43 373.36 365.47
  Q 374.10 360.57 374.02 350.48
  Q 373.96 342.97 373.90 335.46"
/>
<path stroke="#8cb6ff" vector-effect="non-scaling-stroke" d="
  M 373.90 335.46
  L 374.02 313.09
  Q 374.02 312.54 374.57 312.51
  C 377.71 312.32 380.92 312.37 383.96 311.53
  Q 397.76 307.71 402.33 293.81
  C 402.91 292.05 402.81 290.19 403.19 288.42
  C 403.56 286.74 402.96 284.77 401.42 283.90
  Q 398.82 282.42 395.84 281.03
  Q 395.38 280.82 395.16 280.37
  Q 389.35 268.68 375.77 268.84
  Q 373.82 268.87 371.20 268.75"
/>
<path stroke="#81a7ff" vector-effect="non-scaling-stroke" d="
  M 371.20 268.75
  Q 372.85 261.57 374.43 254.43
  Q 376.66 244.34 378.54 240.85
  Q 382.72 233.08 390.44 229.25
  Q 394.99 227.00 404.90 225.21
  Q 417.21 222.98 428.28 220.53
  Q 448.58 216.04 459.12 197.01
  Q 459.39 196.52 459.90 196.28
  C 465.79 193.58 468.93 188.50 468.47 181.93
  C 467.68 170.60 455.72 165.62 446.41 171.04
  Q 445.99 171.29 445.50 171.21
  L 412.71 165.77
  Q 412.18 165.69 411.88 165.24
  Q 410.15 162.57 408.15 160.05
  Q 397.75 146.90 381.24 144.66
  A 0.99 0.99 0.0 0 1 380.39 143.69
  Q 380.31 135.47 380.47 126.21
  C 380.54 122.26 379.31 118.61 375.76 116.55
  Q 371.02 113.80 366.59 116.81
  Q 364.44 118.27 361.80 123.31
  Q 345.98 153.48 328.65 186.18
  C 324.50 194.01 320.28 202.66 315.36 209.41
  Q 298.26 232.87 268.99 238.93
  Q 262.18 240.34 252.55 240.31
  Q 220.25 240.19 189.83 240.30
  Q 183.86 240.32 177.97 239.23
  Q 169.14 237.60 160.31 236.17
  Q 134.73 232.02 112.24 242.46
  Q 105.35 245.65 99.46 250.08
  A 0.63 0.62 -33.2 0 1 98.54 249.89
  C 95.68 244.72 91.93 239.59 89.86 234.23
  C 83.78 218.55 93.53 201.22 110.29 198.04
  C 120.86 196.03 130.18 200.63 136.00 209.51
  Q 137.75 212.18 140.17 213.72
  C 148.09 218.74 158.56 212.82 158.65 203.43
  Q 158.69 199.54 155.01 194.52
  Q 149.05 186.38 141.63 181.48
  Q 140.26 180.57 141.91 180.60
  L 144.74 180.64"
/>
<path stroke="#95c2ff" vector-effect="non-scaling-stroke" d="
  M 144.74 180.64
  Q 159.54 181.50 174.25 180.59"
/>
<path stroke="#81a7ff" vector-effect="non-scaling-stroke" d="
  M 174.25 180.59
  Q 177.54 179.93 177.54 177.25
  Q 177.55 109.98 177.54 42.75
  Q 177.54 42.49 177.80 42.49
  L 315.24 42.50
  Q 315.80 42.50 315.80 43.06
  Q 315.77 109.94 315.80 176.79
  C 315.80 181.03 320.26 180.81 323.10 180.56
  C 327.80 180.14 327.87 174.02 323.52 173.44
  Q 322.96 173.37 322.96 172.81
  L 322.99 38.87
  A 3.37 3.37 0.0 0 0 319.62 35.50
  L 173.92 35.50
  Q 170.35 35.50 170.35 39.07
  L 170.34 173.06
  Q 170.34 173.46 169.94 173.46
  L 35.44 173.49
  A 3.47 3.47 0.0 0 0 31.97 176.96
  Q 31.95 248.70 31.97 322.83
  C 31.97 325.57 35.12 326.01 37.50 326.04
  Q 45.46 326.13 52.75 326.07
  Q 53.55 326.06 55.21 325.32
  C 58.34 323.91 57.68 319.66 54.53 318.94
  Q 54.05 318.83 53.59 319.03
  Q 52.69 319.43 51.93 318.84
  Q 51.70 318.67 51.42 318.67
  L 39.56 318.70
  Q 39.04 318.70 39.04 318.19
  L 38.98 180.99
  Q 38.98 180.45 39.51 180.45
  L 88.72 180.41
  Q 89.77 180.41 88.87 180.95
  Q 83.77 183.97 79.80 187.91
  Q 62.79 204.80 64.50 228.87
  Q 65.32 240.45 71.48 250.89
  Q 75.94 258.43 80.81 266.57
  A 1.26 1.26 0.0 0 1 80.75 267.97
  Q 66.99 286.65 64.48 310.04"
/>
<path stroke="#176aff" vector-effect="non-scaling-stroke" d="
  M 174.25 180.59
  Q 159.52 179.90 144.74 180.64"
/>
<path stroke="#0d5eff" vector-effect="non-scaling-stroke" d="
  M 371.20 268.75
  Q 372.18 269.30 373.12 269.12
  A 2.04 2.01 -42.7 0 1 374.03 269.15
  C 374.59 269.30 374.88 269.44 375.50 269.39
  Q 380.43 269.03 384.38 271.44
  Q 386.11 272.49 384.36 273.50
  Q 382.99 274.30 381.50 275.03
  Q 381.39 275.09 381.30 275.18
  Q 381.17 275.30 381.20 275.48
  A 0.35 0.35 0.0 0 1 380.96 275.87
  Q 380.08 276.15 379.48 275.50
  A 1.09 1.08 -21.5 0 0 378.69 275.16
  L 361.68 275.28"
/>
<path stroke="#81a7ff" vector-effect="non-scaling-stroke" d="
  M 361.68 275.28
  Q 360.65 274.89 360.32 274.42
  Q 355.89 267.96 351.65 261.54
  Q 351.16 260.80 351.07 261.68
  Q 348.31 287.01 345.32 312.68
  C 344.99 315.48 345.46 318.19 342.16 319.37
  Q 319.34 327.58 295.13 336.27
  Q 286.22 339.47 279.75 343.78
  Q 248.95 364.30 243.47 401.52"
/>
<path stroke="#0d5eff" vector-effect="non-scaling-stroke" d="
  M 243.47 401.52
  Q 242.50 405.28 241.55 409.03
  Q 241.12 410.77 241.09 412.43
  Q 241.04 415.29 238.16 416.35
  Q 237.66 416.54 237.72 417.06
  Q 237.79 417.65 237.38 418.08
  Q 237.02 418.45 236.85 417.96
  Q 236.50 417.01 236.67 415.97
  Q 236.72 415.68 236.44 415.60
  Q 236.19 415.52 236.17 415.25
  Q 236.02 412.90 235.82 410.52"
/>
<path stroke="#81a7ff" vector-effect="non-scaling-stroke" d="
  M 235.82 410.52
  Q 235.92 385.22 249.84 363.57
  Q 250.44 362.65 249.35 362.49
  Q 241.47 361.39 232.56 358.26
  A 0.25 0.25 0.0 0 0 232.25 358.60
  Q 240.68 377.26 228.70 392.65
  C 226.18 395.88 222.88 398.42 220.21 401.46
  Q 213.53 409.07 213.79 419.64"
/>
<path stroke="#0d5eff" vector-effect="non-scaling-stroke" d="
  M 213.79 419.64
  L 214.21 428.34
  Q 214.23 428.84 213.90 429.22
  L 213.17 430.07
  Q 212.91 430.38 212.79 430.77
  Q 212.52 431.70 211.61 432.53
  Q 211.23 432.87 210.88 432.50
  Q 209.99 431.58 210.09 432.53"
/>
<path stroke="#81a7ff" vector-effect="non-scaling-stroke" d="
  M 210.09 432.53
  Q 210.19 432.30 209.89 431.99
  Q 209.57 431.67 209.40 431.25
  C 203.79 417.00 206.89 403.38 217.94 393.22
  C 223.27 388.32 227.41 383.00 228.16 375.64
  C 229.65 360.99 218.48 349.45 204.40 348.25
  Q 202.54 348.09 200.69 348.22
  C 197.89 348.41 194.36 347.48 192.58 350.31
  Q 190.98 352.85 193.79 355.64"
/>
<path stroke="#176aff" vector-effect="non-scaling-stroke" d="
  M 193.79 355.64
  Q 200.23 357.11 207.74 356.07"
/>
<path stroke="#81a7ff" vector-effect="non-scaling-stroke" d="
  M 207.74 356.07
  Q 221.41 360.48 220.98 374.03
  C 220.69 383.18 211.83 387.84 207.05 394.56
  Q 194.11 412.75 203.01 434.30"
/>
<path stroke="#0d5eff" vector-effect="non-scaling-stroke" d="
  M 203.01 434.30
  Q 203.05 436.28 203.39 436.73
  Q 204.61 438.40 205.88 439.97
  A 0.54 0.54 0.0 0 1 205.93 440.56
  Q 204.91 442.38 204.37 444.79
  Q 204.32 445.01 204.46 445.18
  Q 204.89 445.71 204.22 445.82
  Q 203.69 445.91 203.74 446.40
  Q 203.80 447.03 203.25 446.71
  L 201.45 445.68"
/>
<path stroke="#176aff" vector-effect="non-scaling-stroke" d="
  M 64.09 318.33
  Q 64.97 314.22 64.48 310.04"
/>
<path stroke="#8cb6ff" vector-effect="non-scaling-stroke" d="
  M 235.82 410.52
  L 235.77 441.46
  Q 235.76 441.96 235.27 441.87
  Q 228.13 440.44 223.25 436.75
  Q 215.16 430.65 213.79 419.64"
/>
<path stroke="#2279ff" vector-effect="non-scaling-stroke" d="
  M 238.37 449.16
  Q 235.49 449.16 233.05 448.47
  Q 231.63 448.07 229.88 447.82
  Q 228.37 447.60 226.72 447.02"
/>
<path stroke="#2279ff" vector-effect="non-scaling-stroke" d="
  M 373.90 335.46
  Q 373.82 341.64 373.45 347.77
  Q 373.41 348.47 373.20 347.80
  Q 373.14 347.62 373.01 347.46
  Q 372.76 347.16 372.41 347.34
  Q 372.08 347.51 371.85 347.22
  Q 371.42 346.66 370.79 346.83
  Q 370.32 346.96 370.10 346.52
  L 369.57 345.48
  A 0.47 0.47 0.0 0 0 368.70 345.54
  Q 368.63 345.77 368.56 346.00
  Q 368.32 346.86 368.11 345.99
  L 368.02 345.61
  A 0.29 0.28 -26.2 0 0 367.56 345.46
  Q 367.23 345.72 367.40 346.05
  Q 367.34 344.73 366.78 343.68"
/>
<path stroke="#8cb6ff" vector-effect="non-scaling-stroke" d="
  M 361.68 275.28
  Q 363.16 276.17 364.13 276.17
  Q 370.29 276.18 376.24 276.20
  Q 380.67 276.22 382.68 277.32
  Q 387.11 279.77 388.74 283.99
  C 389.71 286.50 392.42 287.54 394.76 288.43
  Q 396.16 288.96 395.79 290.41
  Q 392.75 302.26 381.34 304.74
  C 377.83 305.50 373.98 305.19 370.38 305.25
  A 3.65 3.65 0.0 0 0 366.79 308.89
  L 366.78 343.68"
/>
<path stroke="#95c2ff" vector-effect="non-scaling-stroke" d="
  M 366.78 343.68
  Q 366.89 356.67 366.59 360.55
  Q 365.24 378.18 353.45 392.92
  Q 352.31 394.35 352.31 396.15
  Q 352.32 417.20 352.35 443.31
  Q 352.35 444.93 352.48 446.58
  Q 352.65 448.54 354.56 449.35
  Q 358.46 450.99 362.54 452.37
  A 2.41 2.41 0.0 0 1 364.17 454.78
  Q 364.06 456.68 362.14 456.65
  Q 354.31 456.54 345.86 456.81
  A 0.88 0.87 -0.6 0 1 344.96 455.94
  L 344.91 407.67
  A 3.52 3.52 0.0 0 0 339.42 404.76
  L 330.92 410.49
  A 0.32 0.32 0.0 0 1 330.42 410.20
  Q 330.95 401.98 327.86 394.23"
/>
<path stroke="#8cb6ff" vector-effect="non-scaling-stroke" d="
  M 327.86 394.23
  C 322.30 379.74 308.69 370.80 293.23 370.31
  Q 290.69 370.22 289.60 372.51
  Q 289.30 373.13 289.31 373.74
  Q 289.32 377.25 292.65 377.44
  Q 313.08 378.58 321.27 396.97"
/>
<path stroke="#95c2ff" vector-effect="non-scaling-stroke" d="
  M 321.27 396.97
  Q 326.56 414.04 316.45 426.71
  Q 313.20 430.77 307.59 434.49
  Q 301.75 438.36 297.02 441.78
  Q 296.58 442.10 296.04 442.10
  L 254.21 442.03
  Q 251.26 442.02 250.58 444.90
  C 249.96 447.51 251.70 449.28 254.22 449.28
  Q 283.60 449.23 311.68 449.25
  Q 314.61 449.25 315.77 451.95
  Q 316.00 452.47 315.94 453.03
  Q 315.57 456.52 312.37 456.52
  Q 273.70 456.41 237.04 456.55"
/>
<path stroke="#8cb6ff" vector-effect="non-scaling-stroke" d="
  M 237.04 456.55
  Q 213.89 454.29 203.01 434.30"
/>
<path stroke="#95c2ff" vector-effect="non-scaling-stroke" d="
  M 207.74 356.07
  Q 200.90 354.73 193.79 355.64"
/>
<path stroke="#8cb6ff" vector-effect="non-scaling-stroke" d="
  M 210.09 432.53
  Q 215.86 442.79 226.72 447.02"
/>
<path stroke="#95c2ff" vector-effect="non-scaling-stroke" d="
  M 226.72 447.02
  Q 232.09 450.22 238.37 449.16"
/>
<path stroke="#8cb6ff" vector-effect="non-scaling-stroke" d="
  M 238.37 449.16
  Q 243.14 450.22 243.14 445.24
  Q 243.12 428.21 243.01 411.16
  C 242.99 408.05 243.35 404.75 243.47 401.52"
/>
<path stroke="#2279ff" vector-effect="non-scaling-stroke" d="
  M 253.69 464.03
  Q 254.65 463.00 254.60 462.58
  Q 254.57 462.38 254.73 462.25
  Q 254.95 462.07 255.05 461.86
  Q 255.11 461.74 255.04 461.62
  Q 254.97 461.50 254.86 461.41
  Q 254.77 461.34 254.85 461.26
  Q 255.78 460.37 256.17 459.09
  Q 256.39 458.37 255.64 458.33
  Q 254.50 458.26 253.48 457.82
  Q 252.49 457.40 251.37 457.38
  Q 244.13 457.29 237.04 456.55"
/>
<path stroke="#2279ff" vector-effect="non-scaling-stroke" d="
  M 321.27 396.97
  Q 322.58 397.82 323.31 396.80
  A 1.74 1.71 -83.2 0 1 324.06 396.20
  Q 325.28 395.68 326.43 396.29
  Q 326.74 396.45 326.69 396.10
  Q 326.68 396.04 326.73 396.01
  Q 327.10 395.71 327.36 396.15
  Q 327.42 396.25 327.51 396.30
  Q 328.39 396.71 327.87 395.90
  Q 327.33 395.07 327.86 394.23"
/>
<path stroke="#95c2ff" vector-effect="non-scaling-stroke" d="
  M 453.77 318.78
  Q 419.61 318.76 385.35 318.77
  C 380.23 318.77 379.99 326.05 385.39 326.06
  Q 422.63 326.11 457.06 326.05
  Q 461.50 326.04 461.50 321.66
  Q 461.54 269.52 461.53 218.30
  A 4.12 4.04 36.3 0 0 461.32 217.01
  Q 459.98 212.99 457.77 213.34
  Q 454.26 213.89 454.26 217.12
  Q 454.21 267.86 454.29 318.26
  Q 454.29 318.78 453.77 318.78"
/>
<path stroke="#95c2ff" vector-effect="non-scaling-stroke" d="
  M 170.39 364.25
  L 170.33 406.31"
/>
<path stroke="#81a7ff" vector-effect="non-scaling-stroke" d="
  M 170.33 406.31
  Q 170.33 433.13 170.32 460.01
  Q 170.32 464.00 174.24 464.02
  Q 189.36 464.09 202.57 463.99
  Q 205.50 463.97 206.50 461.22
  Q 206.72 460.63 206.49 460.03
  Q 205.18 456.63 201.54 456.63
  L 178.24 456.63
  A 0.68 0.68 0.0 0 1 177.56 455.95
  Q 177.50 415.50 177.56 366.94
  Q 177.56 365.08 176.39 363.60
  Q 174.20 360.85 170.39 364.25"
/>
<path stroke="#176aff" vector-effect="non-scaling-stroke" d="
  M 170.33 406.31
  L 170.39 364.25"
/>
<path stroke="#81a7ff" vector-effect="non-scaling-stroke" d="
  M 399.59 161.14
  C 398.34 160.06 397.28 158.82 395.92 157.79
  Q 387.86 151.70 377.21 151.52
  Q 373.22 151.45 373.10 147.47
  Q 372.76 135.71 373.07 124.50
  Q 373.13 122.47 371.50 122.47
  A 1.37 1.36 -75.6 0 0 370.28 123.20
  Q 351.25 159.43 328.34 202.79
  C 314.11 229.71 286.81 247.37 256.39 247.44
  Q 222.07 247.52 189.26 247.51
  Q 183.70 247.51 178.03 246.51
  Q 164.63 244.13 154.69 242.80
  Q 130.60 239.58 107.83 253.14
  Q 103.66 255.62 99.98 258.49
  A 3.37 3.37 0.0 0 1 95.07 257.64
  Q 90.15 249.91 85.86 242.38
  Q 80.54 233.01 80.91 223.87
  C 81.66 205.71 96.00 190.41 114.68 190.33
  C 126.00 190.29 136.22 195.92 142.40 205.74
  C 146.03 211.53 153.82 206.34 150.69 201.13
  C 132.89 171.48 90.80 175.50 76.04 205.46
  C 69.96 217.79 70.04 233.15 76.69 244.97
  Q 81.81 254.06 87.85 263.89
  C 89.05 265.84 90.45 267.71 88.67 269.96
  Q 71.93 291.10 71.56 317.68
  Q 71.40 328.80 71.65 339.99
  Q 71.86 348.93 70.20 354.51
  Q 68.05 361.80 62.59 367.35
  C 59.41 370.59 55.46 372.77 52.51 376.21
  C 47.40 382.16 46.45 388.22 46.49 396.37
  Q 46.61 426.72 46.61 456.13
  Q 46.61 456.66 47.14 456.66
  Q 64.49 456.55 80.94 456.83
  C 84.69 456.90 88.10 455.62 89.17 451.80
  C 90.33 447.64 87.37 444.74 83.73 443.02
  Q 78.85 440.71 74.15 438.25
  A 2.82 2.82 0.0 0 1 72.63 435.75
  L 72.61 393.75
  A 3.68 3.67 -13.4 0 1 74.63 390.47
  Q 92.88 381.34 111.17 372.19
  C 128.60 363.48 139.27 346.75 139.43 327.16
  C 139.45 324.85 141.39 323.30 143.61 323.34
  Q 173.50 323.89 199.40 334.86
  Q 207.49 338.29 214.92 342.26
  Q 222.85 346.50 230.90 349.84
  Q 241.87 354.39 254.99 356.03
  Q 255.48 356.09 255.80 355.70
  Q 262.64 347.37 271.26 341.07
  Q 271.66 340.77 271.69 340.28
  Q 272.37 329.40 272.98 318.85
  A 3.86 3.52 -85.1 0 1 276.94 315.19
  Q 277.18 315.22 277.40 315.27
  Q 280.36 316.02 280.19 319.08
  L 279.30 335.00
  A 0.42 0.42 0.0 0 0 279.94 335.38
  Q 285.53 331.91 291.79 329.68
  Q 314.42 321.61 337.15 313.60
  A 1.57 1.55 83.8 0 0 338.19 312.29
  Q 340.90 287.43 344.19 258.67
  C 344.91 252.47 352.59 250.18 356.28 255.40
  Q 360.15 260.89 363.63 266.57
  Q 364.24 267.56 364.47 266.42
  Q 366.04 258.62 367.79 250.90
  Q 370.01 241.06 372.96 236.19
  Q 378.68 226.74 388.26 222.38
  Q 393.28 220.09 403.71 218.13
  Q 411.53 216.65 419.83 215.07
  Q 430.99 212.94 436.32 210.17
  Q 445.29 205.50 450.43 197.46
  A 0.53 0.53 0.0 0 0 450.11 196.66
  C 442.23 194.77 438.14 185.83 440.72 178.38
  Q 440.97 177.65 440.20 177.52
  L 409.22 172.31
  A 3.20 3.18 78.7 0 1 407.05 170.85
  C 404.98 167.54 402.58 163.72 399.59 161.14"
/>
<path stroke="#81a7ff" vector-effect="non-scaling-stroke" d="
  M 461.49 183.05
  A 7.20 7.20 0.0 0 0 454.29 175.85
  A 7.20 7.20 0.0 0 0 447.09 183.05
  A 7.20 7.20 0.0 0 0 454.29 190.25
  A 7.20 7.20 0.0 0 0 461.49 183.05"
/>
<path stroke="#81a7ff" vector-effect="non-scaling-stroke" d="
  M 120.15 389.75
  Q 157.16 373.48 169.61 333.96
  Q 169.76 333.49 169.28 333.39
  Q 158.31 331.14 147.14 330.96
  Q 146.43 330.95 146.38 331.66
  C 145.00 351.79 132.91 369.47 114.90 378.46
  Q 97.89 386.95 80.34 395.81
  Q 79.77 396.10 79.77 396.73
  L 79.77 432.77
  Q 79.77 433.34 80.30 433.57
  C 89.18 437.42 97.13 440.72 96.50 451.99
  C 96.42 453.35 95.61 454.79 95.25 456.12
  Q 95.07 456.77 95.74 456.77
  Q 102.62 456.80 108.95 456.69
  Q 110.28 456.67 111.32 455.84
  C 115.56 452.52 115.38 446.59 110.50 444.18
  Q 104.94 441.45 99.74 438.84
  Q 97.67 437.80 97.67 435.33
  Q 97.65 419.08 97.68 402.42
  A 4.17 4.17 0.0 0 1 100.21 398.60
  C 106.80 395.76 111.84 393.41 120.15 389.75"
/>
<path stroke="#95c2ff" vector-effect="non-scaling-stroke" d="
  M 322.75 433.89
  C 327.34 436.13 334.58 438.91 336.48 443.82
  Q 337.87 447.41 337.84 443.55
  Q 337.74 429.95 338.01 415.40
  A 0.56 0.56 0.0 0 0 337.14 414.93
  L 328.52 420.76
  A 1.70 1.61 85.4 0 0 327.94 421.48
  Q 325.78 426.79 322.19 431.53
  A 1.57 1.57 0.0 0 0 322.75 433.89"
/>
<path stroke="#95c2ff" vector-effect="non-scaling-stroke" d="
  M 322.61 450.46
  Q 323.48 453.13 322.58 456.32
  Q 322.34 457.19 323.25 457.18
  Q 327.24 457.12 329.42 454.59
  C 332.64 450.86 330.91 446.09 326.76 444.07
  Q 320.97 441.25 315.64 438.46
  Q 315.21 438.23 314.81 438.50
  L 310.31 441.56
  Q 308.90 442.52 310.60 442.47
  Q 319.94 442.18 322.61 450.46"
/>
</g>
<path fill="#ffffff" d="
  M 0.00 0.00
  L 500.00 0.00
  L 500.00 500.00
  L 0.00 500.00
  L 0.00 0.00
  Z
  M 64.48 310.04
  L 64.09 318.33
  Q 63.93 330.80 63.93 343.38
  Q 63.93 350.20 62.92 353.03
  Q 60.05 361.05 53.16 365.75
  Q 44.18 371.87 40.65 382.45
  Q 38.85 387.86 38.84 400.37
  Q 38.83 429.06 39.02 454.42
  C 39.05 457.88 39.81 461.17 43.11 462.91
  Q 44.85 463.83 48.93 463.84
  Q 76.11 463.86 103.29 463.84
  C 109.38 463.83 113.03 464.01 117.02 460.33
  C 125.11 452.87 121.87 441.26 112.23 436.90
  Q 108.55 435.24 105.17 433.44
  Q 104.77 433.23 104.77 432.78
  L 104.77 405.05
  A 0.79 0.78 77.6 0 1 105.22 404.34
  Q 113.88 400.35 124.63 395.65
  Q 153.52 383.01 169.58 353.29
  Q 174.21 344.72 176.22 336.11
  A 1.10 1.10 0.0 0 1 177.59 335.30
  Q 186.43 337.74 194.08 340.68
  Q 195.21 341.11 194.05 341.42
  C 180.31 345.07 182.45 363.70 197.01 363.31
  C 201.91 363.18 207.92 362.21 211.45 366.54
  Q 215.34 371.30 213.14 376.60
  C 211.69 380.09 207.84 382.92 205.21 385.72
  C 189.73 402.20 187.28 427.15 201.45 445.68
  C 208.74 455.13 219.01 461.16 230.48 463.27
  C 237.26 464.52 246.08 464.07 253.69 464.03
  Q 289.17 464.08 324.50 463.93
  C 330.82 463.90 334.78 460.74 337.30 455.24
  Q 337.67 454.43 337.80 455.31
  Q 338.21 457.91 337.78 460.98
  A 1.93 1.91 30.2 0 0 338.16 462.39
  Q 339.42 464.04 341.73 464.04
  Q 351.93 464.07 362.47 463.94
  C 368.02 463.87 372.17 458.81 371.33 453.50
  Q 370.52 448.35 365.95 446.09
  Q 363.24 444.75 360.38 443.95
  A 1.26 1.25 -82.1 0 1 359.47 442.74
  L 359.43 397.54
  A 2.31 2.27 64.6 0 1 359.92 396.12
  Q 370.79 382.43 373.36 365.47
  Q 374.10 360.57 374.02 350.48
  Q 373.96 342.97 373.90 335.46
  L 374.02 313.09
  Q 374.02 312.54 374.57 312.51
  C 377.71 312.32 380.92 312.37 383.96 311.53
  Q 397.76 307.71 402.33 293.81
  C 402.91 292.05 402.81 290.19 403.19 288.42
  C 403.56 286.74 402.96 284.77 401.42 283.90
  Q 398.82 282.42 395.84 281.03
  Q 395.38 280.82 395.16 280.37
  Q 389.35 268.68 375.77 268.84
  Q 373.82 268.87 371.20 268.75
  Q 372.85 261.57 374.43 254.43
  Q 376.66 244.34 378.54 240.85
  Q 382.72 233.08 390.44 229.25
  Q 394.99 227.00 404.90 225.21
  Q 417.21 222.98 428.28 220.53
  Q 448.58 216.04 459.12 197.01
  Q 459.39 196.52 459.90 196.28
  C 465.79 193.58 468.93 188.50 468.47 181.93
  C 467.68 170.60 455.72 165.62 446.41 171.04
  Q 445.99 171.29 445.50 171.21
  L 412.71 165.77
  Q 412.18 165.69 411.88 165.24
  Q 410.15 162.57 408.15 160.05
  Q 397.75 146.90 381.24 144.66
  A 0.99 0.99 0.0 0 1 380.39 143.69
  Q 380.31 135.47 380.47 126.21
  C 380.54 122.26 379.31 118.61 375.76 116.55
  Q 371.02 113.80 366.59 116.81
  Q 364.44 118.27 361.80 123.31
  Q 345.98 153.48 328.65 186.18
  C 324.50 194.01 320.28 202.66 315.36 209.41
  Q 298.26 232.87 268.99 238.93
  Q 262.18 240.34 252.55 240.31
  Q 220.25 240.19 189.83 240.30
  Q 183.86 240.32 177.97 239.23
  Q 169.14 237.60 160.31 236.17
  Q 134.73 232.02 112.24 242.46
  Q 105.35 245.65 99.46 250.08
  A 0.63 0.62 -33.2 0 1 98.54 249.89
  C 95.68 244.72 91.93 239.59 89.86 234.23
  C 83.78 218.55 93.53 201.22 110.29 198.04
  C 120.86 196.03 130.18 200.63 136.00 209.51
  Q 137.75 212.18 140.17 213.72
  C 148.09 218.74 158.56 212.82 158.65 203.43
  Q 158.69 199.54 155.01 194.52
  Q 149.05 186.38 141.63 181.48
  Q 140.26 180.57 141.91 180.60
  L 144.74 180.64
  Q 159.54 181.50 174.25 180.59
  Q 177.54 179.93 177.54 177.25
  Q 177.55 109.98 177.54 42.75
  Q 177.54 42.49 177.80 42.49
  L 315.24 42.50
  Q 315.80 42.50 315.80 43.06
  Q 315.77 109.94 315.80 176.79
  C 315.80 181.03 320.26 180.81 323.10 180.56
  C 327.80 180.14 327.87 174.02 323.52 173.44
  Q 322.96 173.37 322.96 172.81
  L 322.99 38.87
  A 3.37 3.37 0.0 0 0 319.62 35.50
  L 173.92 35.50
  Q 170.35 35.50 170.35 39.07
  L 170.34 173.06
  Q 170.34 173.46 169.94 173.46
  L 35.44 173.49
  A 3.47 3.47 0.0 0 0 31.97 176.96
  Q 31.95 248.70 31.97 322.83
  C 31.97 325.57 35.12 326.01 37.50 326.04
  Q 45.46 326.13 52.75 326.07
  Q 53.55 326.06 55.21 325.32
  C 58.34 323.91 57.68 319.66 54.53 318.94
  Q 54.05 318.83 53.59 319.03
  Q 52.69 319.43 51.93 318.84
  Q 51.70 318.67 51.42 318.67
  L 39.56 318.70
  Q 39.04 318.70 39.04 318.19
  L 38.98 180.99
  Q 38.98 180.45 39.51 180.45
  L 88.72 180.41
  Q 89.77 180.41 88.87 180.95
  Q 83.77 183.97 79.80 187.91
  Q 62.79 204.80 64.50 228.87
  Q 65.32 240.45 71.48 250.89
  Q 75.94 258.43 80.81 266.57
  A 1.26 1.26 0.0 0 1 80.75 267.97
  Q 66.99 286.65 64.48 310.04
  Z
  M 453.77 318.78
  Q 419.61 318.76 385.35 318.77
  C 380.23 318.77 379.99 326.05 385.39 326.06
  Q 422.63 326.11 457.06 326.05
  Q 461.50 326.04 461.50 321.66
  Q 461.54 269.52 461.53 218.30
  A 4.12 4.04 36.3 0 0 461.32 217.01
  Q 459.98 212.99 457.77 213.34
  Q 454.26 213.89 454.26 217.12
  Q 454.21 267.86 454.29 318.26
  Q 454.29 318.78 453.77 318.78
  Z
  M 170.39 364.25
  L 170.33 406.31
  Q 170.33 433.13 170.32 460.01
  Q 170.32 464.00 174.24 464.02
  Q 189.36 464.09 202.57 463.99
  Q 205.50 463.97 206.50 461.22
  Q 206.72 460.63 206.49 460.03
  Q 205.18 456.63 201.54 456.63
  L 178.24 456.63
  A 0.68 0.68 0.0 0 1 177.56 455.95
  Q 177.50 415.50 177.56 366.94
  Q 177.56 365.08 176.39 363.60
  Q 174.20 360.85 170.39 364.25
  Z"
/>
<path fill="#024fff" d="
  M 174.25 180.59
  Q 159.52 179.90 144.74 180.64
  L 141.91 180.60
  Q 140.26 180.57 141.63 181.48
  Q 149.05 186.38 155.01 194.52
  Q 158.69 199.54 158.65 203.43
  C 158.56 212.82 148.09 218.74 140.17 213.72
  Q 137.75 212.18 136.00 209.51
  C 130.18 200.63 120.86 196.03 110.29 198.04
  C 93.53 201.22 83.78 218.55 89.86 234.23
  C 91.93 239.59 95.68 244.72 98.54 249.89
  A 0.63 0.62 -33.2 0 0 99.46 250.08
  Q 105.35 245.65 112.24 242.46
  Q 134.73 232.02 160.31 236.17
  Q 169.14 237.60 177.97 239.23
  Q 183.86 240.32 189.83 240.30
  Q 220.25 240.19 252.55 240.31
  Q 262.18 240.34 268.99 238.93
  Q 298.26 232.87 315.36 209.41
  C 320.28 202.66 324.50 194.01 328.65 186.18
  Q 345.98 153.48 361.80 123.31
  Q 364.44 118.27 366.59 116.81
  Q 371.02 113.80 375.76 116.55
  C 379.31 118.61 380.54 122.26 380.47 126.21
  Q 380.31 135.47 380.39 143.69
  A 0.99 0.99 0.0 0 0 381.24 144.66
  Q 397.75 146.90 408.15 160.05
  Q 410.15 162.57 411.88 165.24
  Q 412.18 165.69 412.71 165.77
  L 445.50 171.21
  Q 445.99 171.29 446.41 171.04
  C 455.72 165.62 467.68 170.60 468.47 181.93
  C 468.93 188.50 465.79 193.58 459.90 196.28
  Q 459.39 196.52 459.12 197.01
  Q 448.58 216.04 428.28 220.53
  Q 417.21 222.98 404.90 225.21
  Q 394.99 227.00 390.44 229.25
  Q 382.72 233.08 378.54 240.85
  Q 376.66 244.34 374.43 254.43
  Q 372.85 261.57 371.20 268.75
  Q 372.18 269.30 373.12 269.12
  A 2.04 2.01 -42.7 0 1 374.03 269.15
  C 374.59 269.30 374.88 269.44 375.50 269.39
  Q 380.43 269.03 384.38 271.44
  Q 386.11 272.49 384.36 273.50
  Q 382.99 274.30 381.50 275.03
  Q 381.39 275.09 381.30 275.18
  Q 381.17 275.30 381.20 275.48
  A 0.35 0.35 0.0 0 1 380.96 275.87
  Q 380.08 276.15 379.48 275.50
  A 1.09 1.08 -21.5 0 0 378.69 275.16
  L 361.68 275.28
  Q 360.65 274.89 360.32 274.42
  Q 355.89 267.96 351.65 261.54
  Q 351.16 260.80 351.07 261.68
  Q 348.31 287.01 345.32 312.68
  C 344.99 315.48 345.46 318.19 342.16 319.37
  Q 319.34 327.58 295.13 336.27
  Q 286.22 339.47 279.75 343.78
  Q 248.95 364.30 243.47 401.52
  Q 242.50 405.28 241.55 409.03
  Q 241.12 410.77 241.09 412.43
  Q 241.04 415.29 238.16 416.35
  Q 237.66 416.54 237.72 417.06
  Q 237.79 417.65 237.38 418.08
  Q 237.02 418.45 236.85 417.96
  Q 236.50 417.01 236.67 415.97
  Q 236.72 415.68 236.44 415.60
  Q 236.19 415.52 236.17 415.25
  Q 236.02 412.90 235.82 410.52
  Q 235.92 385.22 249.84 363.57
  Q 250.44 362.65 249.35 362.49
  Q 241.47 361.39 232.56 358.26
  A 0.25 0.25 0.0 0 0 232.25 358.60
  Q 240.68 377.26 228.70 392.65
  C 226.18 395.88 222.88 398.42 220.21 401.46
  Q 213.53 409.07 213.79 419.64
  L 214.21 428.34
  Q 214.23 428.84 213.90 429.22
  L 213.17 430.07
  Q 212.91 430.38 212.79 430.77
  Q 212.52 431.70 211.61 432.53
  Q 211.23 432.87 210.88 432.50
  Q 209.99 431.58 210.09 432.53
  Q 210.19 432.30 209.89 431.99
  Q 209.57 431.67 209.40 431.25
  C 203.79 417.00 206.89 403.38 217.94 393.22
  C 223.27 388.32 227.41 383.00 228.16 375.64
  C 229.65 360.99 218.48 349.45 204.40 348.25
  Q 202.54 348.09 200.69 348.22
  C 197.89 348.41 194.36 347.48 192.58 350.31
  Q 190.98 352.85 193.79 355.64
  Q 200.23 357.11 207.74 356.07
  Q 221.41 360.48 220.98 374.03
  C 220.69 383.18 211.83 387.84 207.05 394.56
  Q 194.11 412.75 203.01 434.30
  Q 203.05 436.28 203.39 436.73
  Q 204.61 438.40 205.88 439.97
  A 0.54 0.54 0.0 0 1 205.93 440.56
  Q 204.91 442.38 204.37 444.79
  Q 204.32 445.01 204.46 445.18
  Q 204.89 445.71 204.22 445.82
  Q 203.69 445.91 203.74 446.40
  Q 203.80 447.03 203.25 446.71
  L 201.45 445.68
  C 187.28 427.15 189.73 402.20 205.21 385.72
  C 207.84 382.92 211.69 380.09 213.14 376.60
  Q 215.34 371.30 211.45 366.54
  C 207.92 362.21 201.91 363.18 197.01 363.31
  C 182.45 363.70 180.31 345.07 194.05 341.42
  Q 195.21 341.11 194.08 340.68
  Q 186.43 337.74 177.59 335.30
  A 1.10 1.10 0.0 0 0 176.22 336.11
  Q 174.21 344.72 169.58 353.29
  Q 153.52 383.01 124.63 395.65
  Q 113.88 400.35 105.22 404.34
  A 0.79 0.78 77.6 0 0 104.77 405.05
  L 104.77 432.78
  Q 104.77 433.23 105.17 433.44
  Q 108.55 435.24 112.23 436.90
  C 121.87 441.26 125.11 452.87 117.02 460.33
  C 113.03 464.01 109.38 463.83 103.29 463.84
  Q 76.11 463.86 48.93 463.84
  Q 44.85 463.83 43.11 462.91
  C 39.81 461.17 39.05 457.88 39.02 454.42
  Q 38.83 429.06 38.84 400.37
  Q 38.85 387.86 40.65 382.45
  Q 44.18 371.87 53.16 365.75
  Q 60.05 361.05 62.92 353.03
  Q 63.93 350.20 63.93 343.38
  Q 63.93 330.80 64.09 318.33
  Q 64.97 314.22 64.48 310.04
  Q 66.99 286.65 80.75 267.97
  A 1.26 1.26 0.0 0 0 80.81 266.57
  Q 75.94 258.43 71.48 250.89
  Q 65.32 240.45 64.50 228.87
  Q 62.79 204.80 79.80 187.91
  Q 83.77 183.97 88.87 180.95
  Q 89.77 180.41 88.72 180.41
  L 39.51 180.45
  Q 38.98 180.45 38.98 180.99
  L 39.04 318.19
  Q 39.04 318.70 39.56 318.70
  L 51.42 318.67
  Q 51.70 318.67 51.93 318.84
  Q 52.69 319.43 53.59 319.03
  Q 54.05 318.83 54.53 318.94
  C 57.68 319.66 58.34 323.91 55.21 325.32
  Q 53.55 326.06 52.75 326.07
  Q 45.46 326.13 37.50 326.04
  C 35.12 326.01 31.97 325.57 31.97 322.83
  Q 31.95 248.70 31.97 176.96
  A 3.47 3.47 0.0 0 1 35.44 173.49
  L 169.94 173.46
  Q 170.34 173.46 170.34 173.06
  L 170.35 39.07
  Q 170.35 35.50 173.92 35.50
  L 319.62 35.50
  A 3.37 3.37 0.0 0 1 322.99 38.87
  L 322.96 172.81
  Q 322.96 173.37 323.52 173.44
  C 327.87 174.02 327.80 180.14 323.10 180.56
  C 320.26 180.81 315.80 181.03 315.80 176.79
  Q 315.77 109.94 315.80 43.06
  Q 315.80 42.50 315.24 42.50
  L 177.80 42.49
  Q 177.54 42.49 177.54 42.75
  Q 177.55 109.98 177.54 177.25
  Q 177.54 179.93 174.25 180.59
  Z
  M 399.59 161.14
  C 398.34 160.06 397.28 158.82 395.92 157.79
  Q 387.86 151.70 377.21 151.52
  Q 373.22 151.45 373.10 147.47
  Q 372.76 135.71 373.07 124.50
  Q 373.13 122.47 371.50 122.47
  A 1.37 1.36 -75.6 0 0 370.28 123.20
  Q 351.25 159.43 328.34 202.79
  C 314.11 229.71 286.81 247.37 256.39 247.44
  Q 222.07 247.52 189.26 247.51
  Q 183.70 247.51 178.03 246.51
  Q 164.63 244.13 154.69 242.80
  Q 130.60 239.58 107.83 253.14
  Q 103.66 255.62 99.98 258.49
  A 3.37 3.37 0.0 0 1 95.07 257.64
  Q 90.15 249.91 85.86 242.38
  Q 80.54 233.01 80.91 223.87
  C 81.66 205.71 96.00 190.41 114.68 190.33
  C 126.00 190.29 136.22 195.92 142.40 205.74
  C 146.03 211.53 153.82 206.34 150.69 201.13
  C 132.89 171.48 90.80 175.50 76.04 205.46
  C 69.96 217.79 70.04 233.15 76.69 244.97
  Q 81.81 254.06 87.85 263.89
  C 89.05 265.84 90.45 267.71 88.67 269.96
  Q 71.93 291.10 71.56 317.68
  Q 71.40 328.80 71.65 339.99
  Q 71.86 348.93 70.20 354.51
  Q 68.05 361.80 62.59 367.35
  C 59.41 370.59 55.46 372.77 52.51 376.21
  C 47.40 382.16 46.45 388.22 46.49 396.37
  Q 46.61 426.72 46.61 456.13
  Q 46.61 456.66 47.14 456.66
  Q 64.49 456.55 80.94 456.83
  C 84.69 456.90 88.10 455.62 89.17 451.80
  C 90.33 447.64 87.37 444.74 83.73 443.02
  Q 78.85 440.71 74.15 438.25
  A 2.82 2.82 0.0 0 1 72.63 435.75
  L 72.61 393.75
  A 3.68 3.67 -13.4 0 1 74.63 390.47
  Q 92.88 381.34 111.17 372.19
  C 128.60 363.48 139.27 346.75 139.43 327.16
  C 139.45 324.85 141.39 323.30 143.61 323.34
  Q 173.50 323.89 199.40 334.86
  Q 207.49 338.29 214.92 342.26
  Q 222.85 346.50 230.90 349.84
  Q 241.87 354.39 254.99 356.03
  Q 255.48 356.09 255.80 355.70
  Q 262.64 347.37 271.26 341.07
  Q 271.66 340.77 271.69 340.28
  Q 272.37 329.40 272.98 318.85
  A 3.86 3.52 -85.1 0 1 276.94 315.19
  Q 277.18 315.22 277.40 315.27
  Q 280.36 316.02 280.19 319.08
  L 279.30 335.00
  A 0.42 0.42 0.0 0 0 279.94 335.38
  Q 285.53 331.91 291.79 329.68
  Q 314.42 321.61 337.15 313.60
  A 1.57 1.55 83.8 0 0 338.19 312.29
  Q 340.90 287.43 344.19 258.67
  C 344.91 252.47 352.59 250.18 356.28 255.40
  Q 360.15 260.89 363.63 266.57
  Q 364.24 267.56 364.47 266.42
  Q 366.04 258.62 367.79 250.90
  Q 370.01 241.06 372.96 236.19
  Q 378.68 226.74 388.26 222.38
  Q 393.28 220.09 403.71 218.13
  Q 411.53 216.65 419.83 215.07
  Q 430.99 212.94 436.32 210.17
  Q 445.29 205.50 450.43 197.46
  A 0.53 0.53 0.0 0 0 450.11 196.66
  C 442.23 194.77 438.14 185.83 440.72 178.38
  Q 440.97 177.65 440.20 177.52
  L 409.22 172.31
  A 3.20 3.18 78.7 0 1 407.05 170.85
  C 404.98 167.54 402.58 163.72 399.59 161.14
  Z
  M 461.49 183.05
  A 7.20 7.20 0.0 0 0 454.29 175.85
  A 7.20 7.20 0.0 0 0 447.09 183.05
  A 7.20 7.20 0.0 0 0 454.29 190.25
  A 7.20 7.20 0.0 0 0 461.49 183.05
  Z
  M 120.15 389.75
  Q 157.16 373.48 169.61 333.96
  Q 169.76 333.49 169.28 333.39
  Q 158.31 331.14 147.14 330.96
  Q 146.43 330.95 146.38 331.66
  C 145.00 351.79 132.91 369.47 114.90 378.46
  Q 97.89 386.95 80.34 395.81
  Q 79.77 396.10 79.77 396.73
  L 79.77 432.77
  Q 79.77 433.34 80.30 433.57
  C 89.18 437.42 97.13 440.72 96.50 451.99
  C 96.42 453.35 95.61 454.79 95.25 456.12
  Q 95.07 456.77 95.74 456.77
  Q 102.62 456.80 108.95 456.69
  Q 110.28 456.67 111.32 455.84
  C 115.56 452.52 115.38 446.59 110.50 444.18
  Q 104.94 441.45 99.74 438.84
  Q 97.67 437.80 97.67 435.33
  Q 97.65 419.08 97.68 402.42
  A 4.17 4.17 0.0 0 1 100.21 398.60
  C 106.80 395.76 111.84 393.41 120.15 389.75
  Z"
/>
<path fill="#ffffff" d="
  M 399.59 161.14
  C 402.58 163.72 404.98 167.54 407.05 170.85
  A 3.20 3.18 78.7 0 0 409.22 172.31
  L 440.20 177.52
  Q 440.97 177.65 440.72 178.38
  C 438.14 185.83 442.23 194.77 450.11 196.66
  A 0.53 0.53 0.0 0 1 450.43 197.46
  Q 445.29 205.50 436.32 210.17
  Q 430.99 212.94 419.83 215.07
  Q 411.53 216.65 403.71 218.13
  Q 393.28 220.09 388.26 222.38
  Q 378.68 226.74 372.96 236.19
  Q 370.01 241.06 367.79 250.90
  Q 366.04 258.62 364.47 266.42
  Q 364.24 267.56 363.63 266.57
  Q 360.15 260.89 356.28 255.40
  C 352.59 250.18 344.91 252.47 344.19 258.67
  Q 340.90 287.43 338.19 312.29
  A 1.57 1.55 83.8 0 1 337.15 313.60
  Q 314.42 321.61 291.79 329.68
  Q 285.53 331.91 279.94 335.38
  A 0.42 0.42 0.0 0 1 279.30 335.00
  L 280.19 319.08
  Q 280.36 316.02 277.40 315.27
  Q 277.18 315.22 276.94 315.19
  A 3.86 3.52 -85.1 0 0 272.98 318.85
  Q 272.37 329.40 271.69 340.28
  Q 271.66 340.77 271.26 341.07
  Q 262.64 347.37 255.80 355.70
  Q 255.48 356.09 254.99 356.03
  Q 241.87 354.39 230.90 349.84
  Q 222.85 346.50 214.92 342.26
  Q 207.49 338.29 199.40 334.86
  Q 173.50 323.89 143.61 323.34
  C 141.39 323.30 139.45 324.85 139.43 327.16
  C 139.27 346.75 128.60 363.48 111.17 372.19
  Q 92.88 381.34 74.63 390.47
  A 3.68 3.67 -13.4 0 0 72.61 393.75
  L 72.63 435.75
  A 2.82 2.82 0.0 0 0 74.15 438.25
  Q 78.85 440.71 83.73 443.02
  C 87.37 444.74 90.33 447.64 89.17 451.80
  C 88.10 455.62 84.69 456.90 80.94 456.83
  Q 64.49 456.55 47.14 456.66
  Q 46.61 456.66 46.61 456.13
  Q 46.61 426.72 46.49 396.37
  C 46.45 388.22 47.40 382.16 52.51 376.21
  C 55.46 372.77 59.41 370.59 62.59 367.35
  Q 68.05 361.80 70.20 354.51
  Q 71.86 348.93 71.65 339.99
  Q 71.40 328.80 71.56 317.68
  Q 71.93 291.10 88.67 269.96
  C 90.45 267.71 89.05 265.84 87.85 263.89
  Q 81.81 254.06 76.69 244.97
  C 70.04 233.15 69.96 217.79 76.04 205.46
  C 90.80 175.50 132.89 171.48 150.69 201.13
  C 153.82 206.34 146.03 211.53 142.40 205.74
  C 136.22 195.92 126.00 190.29 114.68 190.33
  C 96.00 190.41 81.66 205.71 80.91 223.87
  Q 80.54 233.01 85.86 242.38
  Q 90.15 249.91 95.07 257.64
  A 3.37 3.37 0.0 0 0 99.98 258.49
  Q 103.66 255.62 107.83 253.14
  Q 130.60 239.58 154.69 242.80
  Q 164.63 244.13 178.03 246.51
  Q 183.70 247.51 189.26 247.51
  Q 222.07 247.52 256.39 247.44
  C 286.81 247.37 314.11 229.71 328.34 202.79
  Q 351.25 159.43 370.28 123.20
  A 1.37 1.36 -75.6 0 1 371.50 122.47
  Q 373.13 122.47 373.07 124.50
  Q 372.76 135.71 373.10 147.47
  Q 373.22 151.45 377.21 151.52
  Q 387.86 151.70 395.92 157.79
  C 397.28 158.82 398.34 160.06 399.59 161.14
  Z"
/>
<circle fill="#ffffff" cx="454.29" cy="183.05" r="7.20"/>
<path fill="#2b85ff" d="
  M 174.25 180.59
  Q 159.54 181.50 144.74 180.64
  Q 159.52 179.90 174.25 180.59
  Z"
/>
<path fill="#2b85ff" d="
  M 453.77 318.78
  Q 454.29 318.78 454.29 318.26
  Q 454.21 267.86 454.26 217.12
  Q 454.26 213.89 457.77 213.34
  Q 459.98 212.99 461.32 217.01
  A 4.12 4.04 36.3 0 1 461.53 218.30
  Q 461.54 269.52 461.50 321.66
  Q 461.50 326.04 457.06 326.05
  Q 422.63 326.11 385.39 326.06
  C 379.99 326.05 380.23 318.77 385.35 318.77
  Q 419.61 318.76 453.77 318.78
  Z"
/>
<path fill="#ffffff" d="
  M 361.68 275.28
  Q 363.16 276.17 364.13 276.17
  Q 370.29 276.18 376.24 276.20
  Q 380.67 276.22 382.68 277.32
  Q 387.11 279.77 388.74 283.99
  C 389.71 286.50 392.42 287.54 394.76 288.43
  Q 396.16 288.96 395.79 290.41
  Q 392.75 302.26 381.34 304.74
  C 377.83 305.50 373.98 305.19 370.38 305.25
  A 3.65 3.65 0.0 0 0 366.79 308.89
  L 366.78 343.68
  Q 366.89 356.67 366.59 360.55
  Q 365.24 378.18 353.45 392.92
  Q 352.31 394.35 352.31 396.15
  Q 352.32 417.20 352.35 443.31
  Q 352.35 444.93 352.48 446.58
  Q 352.65 448.54 354.56 449.35
  Q 358.46 450.99 362.54 452.37
  A 2.41 2.41 0.0 0 1 364.17 454.78
  Q 364.06 456.68 362.14 456.65
  Q 354.31 456.54 345.86 456.81
  A 0.88 0.87 -0.6 0 1 344.96 455.94
  L 344.91 407.67
  A 3.52 3.52 0.0 0 0 339.42 404.76
  L 330.92 410.49
  A 0.32 0.32 0.0 0 1 330.42 410.20
  Q 330.95 401.98 327.86 394.23
  C 322.30 379.74 308.69 370.80 293.23 370.31
  Q 290.69 370.22 289.60 372.51
  Q 289.30 373.13 289.31 373.74
  Q 289.32 377.25 292.65 377.44
  Q 313.08 378.58 321.27 396.97
  Q 326.56 414.04 316.45 426.71
  Q 313.20 430.77 307.59 434.49
  Q 301.75 438.36 297.02 441.78
  Q 296.58 442.10 296.04 442.10
  L 254.21 442.03
  Q 251.26 442.02 250.58 444.90
  C 249.96 447.51 251.70 449.28 254.22 449.28
  Q 283.60 449.23 311.68 449.25
  Q 314.61 449.25 315.77 451.95
  Q 316.00 452.47 315.94 453.03
  Q 315.57 456.52 312.37 456.52
  Q 273.70 456.41 237.04 456.55
  Q 213.89 454.29 203.01 434.30
  Q 194.11 412.75 207.05 394.56
  C 211.83 387.84 220.69 383.18 220.98 374.03
  Q 221.41 360.48 207.74 356.07
  Q 200.90 354.73 193.79 355.64
  Q 190.98 352.85 192.58 350.31
  C 194.36 347.48 197.89 348.41 200.69 348.22
  Q 202.54 348.09 204.40 348.25
  C 218.48 349.45 229.65 360.99 228.16 375.64
  C 227.41 383.00 223.27 388.32 217.94 393.22
  C 206.89 403.38 203.79 417.00 209.40 431.25
  Q 209.57 431.67 209.89 431.99
  Q 210.19 432.30 210.09 432.53
  Q 215.86 442.79 226.72 447.02
  Q 232.09 450.22 238.37 449.16
  Q 243.14 450.22 243.14 445.24
  Q 243.12 428.21 243.01 411.16
  C 242.99 408.05 243.35 404.75 243.47 401.52
  Q 248.95 364.30 279.75 343.78
  Q 286.22 339.47 295.13 336.27
  Q 319.34 327.58 342.16 319.37
  C 345.46 318.19 344.99 315.48 345.32 312.68
  Q 348.31 287.01 351.07 261.68
  Q 351.16 260.80 351.65 261.54
  Q 355.89 267.96 360.32 274.42
  Q 360.65 274.89 361.68 275.28
  Z"
/>
<path fill="#186cff" d="
  M 371.20 268.75
  Q 373.82 268.87 375.77 268.84
  Q 389.35 268.68 395.16 280.37
  Q 395.38 280.82 395.84 281.03
  Q 398.82 282.42 401.42 283.90
  C 402.96 284.77 403.56 286.74 403.19 288.42
  C 402.81 290.19 402.91 292.05 402.33 293.81
  Q 397.76 307.71 383.96 311.53
  C 380.92 312.37 377.71 312.32 374.57 312.51
  Q 374.02 312.54 374.02 313.09
  L 373.90 335.46
  Q 373.82 341.64 373.45 347.77
  Q 373.41 348.47 373.20 347.80
  Q 373.14 347.62 373.01 347.46
  Q 372.76 347.16 372.41 347.34
  Q 372.08 347.51 371.85 347.22
  Q 371.42 346.66 370.79 346.83
  Q 370.32 346.96 370.10 346.52
  L 369.57 345.48
  A 0.47 0.47 0.0 0 0 368.70 345.54
  Q 368.63 345.77 368.56 346.00
  Q 368.32 346.86 368.11 345.99
  L 368.02 345.61
  A 0.29 0.28 -26.2 0 0 367.56 345.46
  Q 367.23 345.72 367.40 346.05
  Q 367.34 344.73 366.78 343.68
  L 366.79 308.89
  A 3.65 3.65 0.0 0 1 370.38 305.25
  C 373.98 305.19 377.83 305.50 381.34 304.74
  Q 392.75 302.26 395.79 290.41
  Q 396.16 288.96 394.76 288.43
  C 392.42 287.54 389.71 286.50 388.74 283.99
  Q 387.11 279.77 382.68 277.32
  Q 380.67 276.22 376.24 276.20
  Q 370.29 276.18 364.13 276.17
  Q 363.16 276.17 361.68 275.28
  L 378.69 275.16
  A 1.09 1.08 -21.5 0 1 379.48 275.50
  Q 380.08 276.15 380.96 275.87
  A 0.35 0.35 0.0 0 0 381.20 275.48
  Q 381.17 275.30 381.30 275.18
  Q 381.39 275.09 381.50 275.03
  Q 382.99 274.30 384.36 273.50
  Q 386.11 272.49 384.38 271.44
  Q 380.43 269.03 375.50 269.39
  C 374.88 269.44 374.59 269.30 374.03 269.15
  A 2.04 2.01 -42.7 0 0 373.12 269.12
  Q 372.18 269.30 371.20 268.75
  Z"
/>
<path fill="#2b85ff" d="
  M 64.48 310.04
  Q 64.97 314.22 64.09 318.33
  L 64.48 310.04
  Z"
/>
<path fill="#ffffff" d="
  M 120.15 389.75
  C 111.84 393.41 106.80 395.76 100.21 398.60
  A 4.17 4.17 0.0 0 0 97.68 402.42
  Q 97.65 419.08 97.67 435.33
  Q 97.67 437.80 99.74 438.84
  Q 104.94 441.45 110.50 444.18
  C 115.38 446.59 115.56 452.52 111.32 455.84
  Q 110.28 456.67 108.95 456.69
  Q 102.62 456.80 95.74 456.77
  Q 95.07 456.77 95.25 456.12
  C 95.61 454.79 96.42 453.35 96.50 451.99
  C 97.13 440.72 89.18 437.42 80.30 433.57
  Q 79.77 433.34 79.77 432.77
  L 79.77 396.73
  Q 79.77 396.10 80.34 395.81
  Q 97.89 386.95 114.90 378.46
  C 132.91 369.47 145.00 351.79 146.38 331.66
  Q 146.43 330.95 147.14 330.96
  Q 158.31 331.14 169.28 333.39
  Q 169.76 333.49 169.61 333.96
  Q 157.16 373.48 120.15 389.75
  Z"
/>
<path fill="#2b85ff" d="
  M 373.90 335.46
  Q 373.96 342.97 374.02 350.48
  Q 374.10 360.57 373.36 365.47
  Q 370.79 382.43 359.92 396.12
  A 2.31 2.27 64.6 0 0 359.43 397.54
  L 359.47 442.74
  A 1.26 1.25 -82.1 0 0 360.38 443.95
  Q 363.24 444.75 365.95 446.09
  Q 370.52 448.35 371.33 453.50
  C 372.17 458.81 368.02 463.87 362.47 463.94
  Q 351.93 464.07 341.73 464.04
  Q 339.42 464.04 338.16 462.39
  A 1.93 1.91 30.2 0 1 337.78 460.98
  Q 338.21 457.91 337.80 455.31
  Q 337.67 454.43 337.30 455.24
  C 334.78 460.74 330.82 463.90 324.50 463.93
  Q 289.17 464.08 253.69 464.03
  Q 254.65 463.00 254.60 462.58
  Q 254.57 462.38 254.73 462.25
  Q 254.95 462.07 255.05 461.86
  Q 255.11 461.74 255.04 461.62
  Q 254.97 461.50 254.86 461.41
  Q 254.77 461.34 254.85 461.26
  Q 255.78 460.37 256.17 459.09
  Q 256.39 458.37 255.64 458.33
  Q 254.50 458.26 253.48 457.82
  Q 252.49 457.40 251.37 457.38
  Q 244.13 457.29 237.04 456.55
  Q 273.70 456.41 312.37 456.52
  Q 315.57 456.52 315.94 453.03
  Q 316.00 452.47 315.77 451.95
  Q 314.61 449.25 311.68 449.25
  Q 283.60 449.23 254.22 449.28
  C 251.70 449.28 249.96 447.51 250.58 444.90
  Q 251.26 442.02 254.21 442.03
  L 296.04 442.10
  Q 296.58 442.10 297.02 441.78
  Q 301.75 438.36 307.59 434.49
  Q 313.20 430.77 316.45 426.71
  Q 326.56 414.04 321.27 396.97
  Q 322.58 397.82 323.31 396.80
  A 1.74 1.71 -83.2 0 1 324.06 396.20
  Q 325.28 395.68 326.43 396.29
  Q 326.74 396.45 326.69 396.10
  Q 326.68 396.04 326.73 396.01
  Q 327.10 395.71 327.36 396.15
  Q 327.42 396.25 327.51 396.30
  Q 328.39 396.71 327.87 395.90
  Q 327.33 395.07 327.86 394.23
  Q 330.95 401.98 330.42 410.20
  A 0.32 0.32 0.0 0 0 330.92 410.49
  L 339.42 404.76
  A 3.52 3.52 0.0 0 1 344.91 407.67
  L 344.96 455.94
  A 0.88 0.87 -0.6 0 0 345.86 456.81
  Q 354.31 456.54 362.14 456.65
  Q 364.06 456.68 364.17 454.78
  A 2.41 2.41 0.0 0 0 362.54 452.37
  Q 358.46 450.99 354.56 449.35
  Q 352.65 448.54 352.48 446.58
  Q 352.35 444.93 352.35 443.31
  Q 352.32 417.20 352.31 396.15
  Q 352.31 394.35 353.45 392.92
  Q 365.24 378.18 366.59 360.55
  Q 366.89 356.67 366.78 343.68
  Q 367.34 344.73 367.40 346.05
  Q 367.23 345.72 367.56 345.46
  A 0.29 0.28 -26.2 0 1 368.02 345.61
  L 368.11 345.99
  Q 368.32 346.86 368.56 346.00
  Q 368.63 345.77 368.70 345.54
  A 0.47 0.47 0.0 0 1 369.57 345.48
  L 370.10 346.52
  Q 370.32 346.96 370.79 346.83
  Q 371.42 346.66 371.85 347.22
  Q 372.08 347.51 372.41 347.34
  Q 372.76 347.16 373.01 347.46
  Q 373.14 347.62 373.20 347.80
  Q 373.41 348.47 373.45 347.77
  Q 373.82 341.64 373.90 335.46
  Z
  M 322.75 433.89
  C 327.34 436.13 334.58 438.91 336.48 443.82
  Q 337.87 447.41 337.84 443.55
  Q 337.74 429.95 338.01 415.40
  A 0.56 0.56 0.0 0 0 337.14 414.93
  L 328.52 420.76
  A 1.70 1.61 85.4 0 0 327.94 421.48
  Q 325.78 426.79 322.19 431.53
  A 1.57 1.57 0.0 0 0 322.75 433.89
  Z
  M 322.61 450.46
  Q 323.48 453.13 322.58 456.32
  Q 322.34 457.19 323.25 457.18
  Q 327.24 457.12 329.42 454.59
  C 332.64 450.86 330.91 446.09 326.76 444.07
  Q 320.97 441.25 315.64 438.46
  Q 315.21 438.23 314.81 438.50
  L 310.31 441.56
  Q 308.90 442.52 310.60 442.47
  Q 319.94 442.18 322.61 450.46
  Z"
/>
<path fill="#2b85ff" d="
  M 193.79 355.64
  Q 200.90 354.73 207.74 356.07
  Q 200.23 357.11 193.79 355.64
  Z"
/>
<path fill="#ffffff" d="
  M 235.82 410.52
  L 235.77 441.46
  Q 235.76 441.96 235.27 441.87
  Q 228.13 440.44 223.25 436.75
  Q 215.16 430.65 213.79 419.64
  Q 213.53 409.07 220.21 401.46
  C 222.88 398.42 226.18 395.88 228.70 392.65
  Q 240.68 377.26 232.25 358.60
  A 0.25 0.25 0.0 0 1 232.56 358.26
  Q 241.47 361.39 249.35 362.49
  Q 250.44 362.65 249.84 363.57
  Q 235.92 385.22 235.82 410.52
  Z"
/>
<path fill="#024fff" d="
  M 170.33 406.31
  L 170.39 364.25
  Q 174.20 360.85 176.39 363.60
  Q 177.56 365.08 177.56 366.94
  Q 177.50 415.50 177.56 455.95
  A 0.68 0.68 0.0 0 0 178.24 456.63
  L 201.54 456.63
  Q 205.18 456.63 206.49 460.03
  Q 206.72 460.63 206.50 461.22
  Q 205.50 463.97 202.57 463.99
  Q 189.36 464.09 174.24 464.02
  Q 170.32 464.00 170.32 460.01
  Q 170.33 433.13 170.33 406.31
  Z"
/>
<path fill="#2b85ff" d="
  M 170.39 364.25
  L 170.33 406.31
  L 170.39 364.25
  Z"
/>
<path fill="#186cff" d="
  M 327.86 394.23
  Q 327.33 395.07 327.87 395.90
  Q 328.39 396.71 327.51 396.30
  Q 327.42 396.25 327.36 396.15
  Q 327.10 395.71 326.73 396.01
  Q 326.68 396.04 326.69 396.10
  Q 326.74 396.45 326.43 396.29
  Q 325.28 395.68 324.06 396.20
  A 1.74 1.71 -83.2 0 0 323.31 396.80
  Q 322.58 397.82 321.27 396.97
  Q 313.08 378.58 292.65 377.44
  Q 289.32 377.25 289.31 373.74
  Q 289.30 373.13 289.60 372.51
  Q 290.69 370.22 293.23 370.31
  C 308.69 370.80 322.30 379.74 327.86 394.23
  Z"
/>
<path fill="#186cff" d="
  M 243.47 401.52
  C 243.35 404.75 242.99 408.05 243.01 411.16
  Q 243.12 428.21 243.14 445.24
  Q 243.14 450.22 238.37 449.16
  Q 235.49 449.16 233.05 448.47
  Q 231.63 448.07 229.88 447.82
  Q 228.37 447.60 226.72 447.02
  Q 215.86 442.79 210.09 432.53
  Q 209.99 431.58 210.88 432.50
  Q 211.23 432.87 211.61 432.53
  Q 212.52 431.70 212.79 430.77
  Q 212.91 430.38 213.17 430.07
  L 213.90 429.22
  Q 214.23 428.84 214.21 428.34
  L 213.79 419.64
  Q 215.16 430.65 223.25 436.75
  Q 228.13 440.44 235.27 441.87
  Q 235.76 441.96 235.77 441.46
  L 235.82 410.52
  Q 236.02 412.90 236.17 415.25
  Q 236.19 415.52 236.44 415.60
  Q 236.72 415.68 236.67 415.97
  Q 236.50 417.01 236.85 417.96
  Q 237.02 418.45 237.38 418.08
  Q 237.79 417.65 237.72 417.06
  Q 237.66 416.54 238.16 416.35
  Q 241.04 415.29 241.09 412.43
  Q 241.12 410.77 241.55 409.03
  Q 242.50 405.28 243.47 401.52
  Z"
/>
<path fill="#ffffff" d="
  M 336.48 443.82
  C 334.58 438.91 327.34 436.13 322.75 433.89
  A 1.57 1.57 0.0 0 1 322.19 431.53
  Q 325.78 426.79 327.94 421.48
  A 1.70 1.61 85.4 0 1 328.52 420.76
  L 337.14 414.93
  A 0.56 0.56 0.0 0 1 338.01 415.40
  Q 337.74 429.95 337.84 443.55
  Q 337.87 447.41 336.48 443.82
  Z"
/>
<path fill="#186cff" d="
  M 203.01 434.30
  Q 213.89 454.29 237.04 456.55
  Q 244.13 457.29 251.37 457.38
  Q 252.49 457.40 253.48 457.82
  Q 254.50 458.26 255.64 458.33
  Q 256.39 458.37 256.17 459.09
  Q 255.78 460.37 254.85 461.26
  Q 254.77 461.34 254.86 461.41
  Q 254.97 461.50 255.04 461.62
  Q 255.11 461.74 255.05 461.86
  Q 254.95 462.07 254.73 462.25
  Q 254.57 462.38 254.60 462.58
  Q 254.65 463.00 253.69 464.03
  C 246.08 464.07 237.26 464.52 230.48 463.27
  C 219.01 461.16 208.74 455.13 201.45 445.68
  L 203.25 446.71
  Q 203.80 447.03 203.74 446.40
  Q 203.69 445.91 204.22 445.82
  Q 204.89 445.71 204.46 445.18
  Q 204.32 445.01 204.37 444.79
  Q 204.91 442.38 205.93 440.56
  A 0.54 0.54 0.0 0 0 205.88 439.97
  Q 204.61 438.40 203.39 436.73
  Q 203.05 436.28 203.01 434.30
  Z"
/>
<path fill="#ffffff" d="
  M 322.61 450.46
  Q 319.94 442.18 310.60 442.47
  Q 308.90 442.52 310.31 441.56
  L 314.81 438.50
  Q 315.21 438.23 315.64 438.46
  Q 320.97 441.25 326.76 444.07
  C 330.91 446.09 332.64 450.86 329.42 454.59
  Q 327.24 457.12 323.25 457.18
  Q 322.34 457.19 322.58 456.32
  Q 323.48 453.13 322.61 450.46
  Z"
/>
<path fill="#2b85ff" d="
  M 226.72 447.02
  Q 228.37 447.60 229.88 447.82
  Q 231.63 448.07 233.05 448.47
  Q 235.49 449.16 238.37 449.16
  Q 232.09 450.22 226.72 447.02
  Z"
/>
</svg>
